<svg id="visual" viewBox="0 0 900 600" width="900" height="600" xmlns="http://www.w3.org/2000/svg" xmlns:xlink="http://www.w3.org/1999/xlink" version="1.1"><rect width="900" height="600" fill="#931F1F"></rect><g><g transform="translate(150 270)"><path d="M106.6 -30.1C120.5 8.3 102.1 61.8 66.9 86C31.6 110.2 -20.5 105 -57.3 78.4C-94.2 51.7 -115.8 3.5 -103.7 -32.3C-91.6 -68.2 -45.8 -91.7 0.2 -91.7C46.3 -91.8 92.6 -68.5 106.6 -30.1Z" stroke="#F7760E" fill="none" stroke-width="20"></path></g><g transform="translate(467 112)"><path d="M91 -29C101.7 3.5 83.1 46.2 50.4 70.1C17.7 94 -29 99.1 -55.6 79.2C-82.1 59.3 -88.5 14.2 -75.9 -20.9C-63.2 -55.9 -31.6 -81.1 4.2 -82.4C40.1 -83.8 80.2 -61.5 91 -29Z" stroke="#F7760E" fill="none" stroke-width="20"></path></g><g transform="translate(766 349)"><path d="M80 -26.1C91.4 9.3 80.1 51.9 50.9 74.1C21.7 96.2 -25.3 97.9 -53.4 76.7C-81.4 55.6 -90.5 11.6 -78.4 -24.6C-66.3 -60.8 -33.2 -89.3 0.5 -89.4C34.3 -89.6 68.5 -61.5 80 -26.1Z" stroke="#F7760E" fill="none" stroke-width="20"></path></g></g></svg>